<svg width="25" height="25" viewBox="0 0 25 25" fill="none" xmlns="http://www.w3.org/2000/svg">
<path d="M12.5 0C10.0277 0 7.61099 0.733112 5.55538 2.10663C3.49976 3.48015 1.89761 5.43238 0.951511 7.71646C0.00541607 10.0005 -0.242126 12.5139 0.24019 14.9386C0.722505 17.3634 1.91301 19.5907 3.66117 21.3388C5.40933 23.087 7.63661 24.2775 10.0614 24.7598C12.4861 25.2421 14.9995 24.9946 17.2835 24.0485C19.5676 23.1024 21.5199 21.5002 22.8934 19.4446C24.2669 17.389 25 14.9723 25 12.5C25 9.1848 23.683 6.00541 21.3388 3.66121C18.9946 1.31702 15.8152 4.27283e-05 12.5 0ZM12.5 24.4444C9.73657 24.4445 7.05861 23.4863 4.92244 21.7332C2.78626 19.9801 1.32403 17.5406 0.784893 14.8302C0.245756 12.1199 0.663071 9.30648 1.96573 6.86934C3.26839 4.4322 5.3758 2.52214 7.92888 1.46461C10.482 0.407073 13.3227 0.267503 15.9672 1.06968C18.6116 1.87185 20.8961 3.56613 22.4314 5.86384C23.9667 8.16155 24.6578 10.9205 24.3869 13.6706C24.1161 16.4208 22.9 18.9919 20.946 20.946C19.8381 22.0568 18.5216 22.9378 17.0722 23.5381C15.6227 24.1385 14.0689 24.4465 12.5 24.4444Z" fill="#FF1D1D" fill-opacity="0.67"/>
<path d="M9.23071 9.28809H10.5384V17.8058H9.23071V9.28809Z" fill="#F71E1E"/>
<path d="M11.8461 9.28809H13.1538V17.8058H11.8461V9.28809Z" fill="#F71E1E"/>
<path d="M14.4615 9.28809H15.7692V17.8058H14.4615V9.28809Z" fill="#F71E1E"/>
<path d="M4 6.09399H21V7.15871H4V6.09399Z" fill="#F71E1E"/>
<path d="M15.7256 6.6263H14.5051V5.56158C14.5051 5.24217 14.1999 4.99374 13.8076 4.99374H11.1922C10.7999 4.99374 10.4948 5.24217 10.4948 5.56158V6.6263H9.27429V5.56158C9.27429 4.70981 10.1461 4 11.1922 4H13.8076C14.8538 4 15.7256 4.70981 15.7256 5.56158V6.6263Z" fill="#F71E1E"/>
<path d="M16.4231 21H8.57691C7.53076 21 6.61537 20.2902 6.52819 19.4384L5.30768 6.6618L6.61537 6.59082L7.83588 19.3674C7.87947 19.6869 8.22819 19.9353 8.57691 19.9353H16.4231C16.8154 19.9353 17.1641 19.6514 17.1641 19.3674L18.3846 6.59082L19.6923 6.6618L18.4718 19.4384C18.3846 20.3257 17.4692 21 16.4231 21Z" fill="#F71E1E"/>
</svg>
