<svg width="26" height="27" viewBox="0 0 26 27" fill="none" xmlns="http://www.w3.org/2000/svg">
<g filter="url(#filter0_d_105_9700)">
<path d="M13 1C11.22 1 9.47991 1.52784 7.99987 2.51677C6.51983 3.50571 5.36628 4.91131 4.68509 6.55585C4.0039 8.20038 3.82567 10.01 4.17294 11.7558C4.5202 13.5016 5.37737 15.1053 6.63604 16.364C7.89472 17.6226 9.49836 18.4798 11.2442 18.8271C12.99 19.1743 14.7996 18.9961 16.4442 18.3149C18.0887 17.6337 19.4943 16.4802 20.4832 15.0001C21.4722 13.5201 22 11.78 22 10C22 7.61306 21.0518 5.32389 19.3639 3.63607C17.6761 1.94825 15.3869 1.00003 13 1ZM13 18.6C11.0103 18.6 9.0822 17.9101 7.54416 16.6479C6.00611 15.3857 4.9533 13.6292 4.56512 11.6778C4.17694 9.72633 4.47741 7.70067 5.41533 5.94593C6.35324 4.19118 7.87058 2.81594 9.70879 2.05452C11.547 1.29309 13.5924 1.1926 15.4964 1.77017C17.4004 2.34773 19.0452 3.56762 20.1506 5.22197C21.256 6.87632 21.7536 8.86277 21.5586 10.8429C21.3636 12.823 20.488 14.6742 19.0811 16.0811C18.2834 16.8809 17.3356 17.5152 16.292 17.9475C15.2483 18.3798 14.1296 18.6015 13 18.6Z" fill="#FF1D1D" fill-opacity="0.67"/>
<path d="M17.5866 8.34166C17.5239 7.7582 17.2495 7.21798 16.8152 6.82329C16.3809 6.4286 15.817 6.20685 15.2302 6.20002L15.2257 6.20001C14.754 6.20875 14.2959 6.35945 13.9111 6.63245C13.6056 6.84757 13.3368 7.11061 13.1152 7.41143C13.0718 7.46945 13.0338 7.52373 13 7.57403C12.9662 7.52372 12.9283 7.46943 12.8849 7.41143C12.6632 7.11061 12.3945 6.84757 12.089 6.63245C11.7042 6.35945 11.2461 6.20875 10.7744 6.20001L10.7698 6.20002C10.183 6.20685 9.61913 6.4286 9.18486 6.82329C8.7506 7.21798 8.47613 7.7582 8.41343 8.34166L8.41276 8.34957C8.40636 8.45097 8.40021 8.6973 8.40002 8.74093C8.40148 9.39021 8.6785 10.0553 9.08025 10.699C9.72352 11.658 10.4881 12.5296 11.3551 13.2923C12.1281 13.9976 12.7764 14.4834 12.8812 14.5609C12.9156 14.5862 12.9573 14.5999 13 14.5999C13.0428 14.5999 13.0844 14.5862 13.1189 14.5609C13.943 13.9389 14.7201 13.257 15.4439 12.5207C15.9977 11.9662 16.4923 11.3557 16.9198 10.699C17.3215 10.0553 17.5986 9.39021 17.6 8.74093C17.5998 8.6973 17.5937 8.45098 17.5873 8.34957L17.5866 8.34166ZM14.3754 12.9969C13.7675 13.5516 13.2367 13.9689 13.0001 14.1496C12.2377 13.5642 11.5169 12.9267 10.8427 12.2416C10.3088 11.7075 9.83184 11.1194 9.41933 10.4868C9.038 9.8792 8.79858 9.27168 8.80003 8.74094C8.79984 8.71838 8.80634 8.46437 8.8116 8.38113C8.86455 7.89601 9.09322 7.44704 9.45446 7.11895C9.8157 6.79085 10.2845 6.6063 10.7725 6.60013C11.164 6.6084 11.5439 6.73459 11.8625 6.9622C12.132 7.15267 12.3691 7.38528 12.5646 7.65109C12.6343 7.744 12.6992 7.84039 12.7591 7.93989C12.7807 7.97585 12.7967 8.00436 12.8071 8.0234L12.8184 8.0446L12.8209 8.0494L12.8212 8.05008C12.8379 8.08326 12.8634 8.11115 12.895 8.13064C12.9265 8.15013 12.9629 8.16045 13 8.16045C13.0371 8.16045 13.0735 8.15013 13.1051 8.13064C13.1367 8.11115 13.1622 8.08326 13.1788 8.05008L13.1792 8.0494C13.2541 7.91015 13.3398 7.77698 13.4354 7.65108C13.631 7.38527 13.8681 7.15267 14.1375 6.96219C14.4562 6.73458 14.8361 6.6084 15.2276 6.60012C15.7155 6.60629 16.1844 6.79084 16.5456 7.11894C16.9068 7.44704 17.1355 7.896 17.1885 8.38112C17.1937 8.46436 17.2002 8.71837 17.2 8.74093C17.2015 9.27167 16.9621 9.87919 16.5807 10.4868C15.9565 11.4148 15.2153 12.2584 14.3754 12.9969Z" fill="#FF1D1D"/>
<path d="M13.0856 7.26239C13.0858 7.26264 13.0859 7.26289 13.0861 7.26314L13.0009 7.32592L13.1152 7.41143M13.0856 7.26239L10.7744 6.20001C11.2461 6.20875 11.7042 6.35945 12.089 6.63245C12.3764 6.83481 12.6312 7.07959 12.8449 7.35832C12.8665 7.3276 12.8896 7.2956 12.9145 7.26239M13.0856 7.26239C13.0854 7.26214 13.0852 7.26188 13.085 7.26163L13 7.32525M13.0856 7.26239L13 7.32525M13.1152 7.41143L13 7.32657L12.8849 7.41143M13.1152 7.41143C13.0718 7.46945 13.0338 7.52373 13 7.57403C12.9662 7.52372 12.9283 7.46943 12.8849 7.41143M13.1152 7.41143H12.8849M12.8849 7.41143L12.9991 7.32591L12.9139 7.26313C12.9141 7.26289 12.9143 7.26264 12.9145 7.26239M12.9145 7.26239C12.9146 7.26215 12.9148 7.2619 12.915 7.26166L13 7.32525M12.9145 7.26239L13 7.32525M12.7591 7.93989L12.5447 8.06838C12.564 8.10069 12.5782 8.12595 12.5871 8.14229L12.5972 8.1611L12.5982 8.16302C12.6356 8.23726 12.6929 8.29969 12.7637 8.34337C12.8347 8.38723 12.9165 8.41045 13 8.41045C13.0835 8.41045 13.1654 8.38723 13.2364 8.34337C13.3065 8.3001 13.3634 8.23844 13.4008 8.16512C13.4692 8.03833 13.5473 7.91704 13.6345 7.80234L13.6345 7.80236L13.6368 7.79923C13.8165 7.55503 14.0343 7.34133 14.2818 7.16634L14.2828 7.16562C14.5594 6.96807 14.8889 6.85819 15.2286 6.85016C15.654 6.85657 16.0625 7.0179 16.3775 7.304C16.6921 7.58974 16.8918 7.98026 16.9393 8.40246C16.9416 8.44122 16.9442 8.51726 16.9464 8.59114C16.9475 8.62905 16.9485 8.66502 16.9491 8.69278L16.9498 8.727C16.95 8.73318 16.95 8.73667 16.95 8.73819C16.95 8.73918 16.95 8.73935 16.95 8.73889L16.95 8.74162C16.9513 9.20264 16.7407 9.76078 16.3711 10.3506C15.7593 11.2594 15.0331 12.0857 14.2103 12.8091L14.2103 12.8091L14.2068 12.8122C13.7135 13.2624 13.2715 13.621 13.0002 13.8334C12.3031 13.2876 11.642 12.6973 11.0208 12.0662L11.0209 12.0662L11.0195 12.0649C10.4984 11.5435 10.0327 10.9695 9.62993 10.3521C9.25974 9.76174 9.04876 9.20304 9.05004 8.74162L9.05002 8.73892C9.05002 8.73935 9.05003 8.73918 9.05004 8.73823C9.05006 8.73671 9.0501 8.73322 9.05021 8.72701L9.05095 8.69279C9.0516 8.66503 9.05255 8.62906 9.05366 8.59114C9.05584 8.51727 9.05851 8.44123 9.06077 8.40247C9.10827 7.98027 9.30794 7.58975 9.62254 7.30401C9.93754 7.01791 10.346 6.85657 10.7714 6.85016C11.1111 6.85819 11.4406 6.96808 11.7172 7.16563L11.7172 7.16563L11.7182 7.16635C11.9658 7.34134 12.1836 7.55503 12.3632 7.79924L12.3632 7.79924L12.3646 7.8011C12.4292 7.88723 12.4894 7.97659 12.5449 8.06883L12.7591 7.93989ZM12.7591 7.93989C12.6992 7.84039 12.6343 7.744 12.5646 7.65109L12.8071 8.0234C12.7967 8.00436 12.7807 7.97585 12.7591 7.93989ZM17.8357 8.32061L17.8358 8.3206L17.8352 8.31495C17.766 7.67066 17.4629 7.07412 16.9833 6.63828C16.5038 6.20245 15.8811 5.95758 15.2331 5.95004V5.95003L15.2309 5.95002L15.2263 5.95001V5.94996L15.2211 5.95006C14.6993 5.95973 14.1925 6.12638 13.7668 6.42829C13.478 6.63168 13.2199 6.87501 13 7.15081C12.7802 6.87512 12.5222 6.63188 12.2336 6.42855C11.8079 6.12648 11.3009 5.95973 10.779 5.95006L10.779 5.95L10.7737 5.95001L10.7692 5.95002V5.95001L10.7669 5.95004C10.119 5.95758 9.49626 6.20245 9.01672 6.63828C8.53718 7.07412 8.2341 7.67066 8.16486 8.31495L8.1648 8.31494L8.16432 8.32051L8.16365 8.32842L8.16359 8.32841L8.16325 8.33382C8.15647 8.44136 8.15023 8.69278 8.15003 8.73988H8.15002L8.15003 8.74149C8.15163 9.4586 8.45611 10.1712 8.86816 10.8314L8.86805 10.8315L8.87263 10.8383C9.52749 11.8145 10.3058 12.7019 11.1883 13.4785C11.9689 14.1907 12.6237 14.6814 12.7326 14.7619L12.733 14.7622C12.8104 14.8192 12.9039 14.8499 13 14.8499C13.0961 14.8499 13.1897 14.8192 13.2671 14.7622L13.2671 14.7622L13.2695 14.7604C14.1031 14.1312 14.8893 13.4414 15.6215 12.6967C16.1872 12.1301 16.6925 11.5064 17.1293 10.8354L17.1294 10.8354L17.1319 10.8314C17.5439 10.1711 17.8484 9.4586 17.85 8.74149L17.85 8.73988C17.8498 8.69279 17.8436 8.44137 17.8368 8.33381L17.8369 8.3338L17.8364 8.32852L17.8357 8.32061Z" stroke="#FF1D1D" stroke-opacity="0.67" stroke-width="0.5"/>
</g>
<defs>
<filter id="filter0_d_105_9700" x="-1" y="0" width="28" height="28" filterUnits="userSpaceOnUse" color-interpolation-filters="sRGB">
<feFlood flood-opacity="0" result="BackgroundImageFix"/>
<feColorMatrix in="SourceAlpha" type="matrix" values="0 0 0 0 0 0 0 0 0 0 0 0 0 0 0 0 0 0 127 0" result="hardAlpha"/>
<feOffset dy="4"/>
<feGaussianBlur stdDeviation="2"/>
<feComposite in2="hardAlpha" operator="out"/>
<feColorMatrix type="matrix" values="0 0 0 0 0 0 0 0 0 0 0 0 0 0 0 0 0 0 0.25 0"/>
<feBlend mode="normal" in2="BackgroundImageFix" result="effect1_dropShadow_105_9700"/>
<feBlend mode="normal" in="SourceGraphic" in2="effect1_dropShadow_105_9700" result="shape"/>
</filter>
</defs>
</svg>
