<svg width="40" height="40" viewBox="0 0 40 40" fill="none" xmlns="http://www.w3.org/2000/svg">
<rect x="0.5" y="0.5" width="39" height="39" rx="19.5" fill="white"/>
<path d="M20 17.3333C20.7333 17.3333 21.3333 16.7333 21.3333 16C21.3333 15.2667 20.7333 14.6667 20 14.6667C19.2667 14.6667 18.6667 15.2667 18.6667 16C18.6667 16.7333 19.2667 17.3333 20 17.3333ZM20 18.6667C19.2667 18.6667 18.6667 19.2667 18.6667 20C18.6667 20.7333 19.2667 21.3333 20 21.3333C20.7333 21.3333 21.3333 20.7333 21.3333 20C21.3333 19.2667 20.7333 18.6667 20 18.6667ZM20 22.6667C19.2667 22.6667 18.6667 23.2667 18.6667 24C18.6667 24.7333 19.2667 25.3333 20 25.3333C20.7333 25.3333 21.3333 24.7333 21.3333 24C21.3333 23.2667 20.7333 22.6667 20 22.6667Z" fill="#0C1116"/>
<rect x="0.5" y="0.5" width="39" height="39" rx="19.5" stroke="#EAECEE"/>
</svg>
